<!DOCTYPE html>
<html lang="en-US">
<head>

	<title>OpenWrt Forum Archive</title>

	<meta charset="UTF-8">

	<meta http-equiv="X-UA-Compatible" content="IE=edge">

	<meta name="viewport" content="width=device-width, initial-scale=1.0">
	<link rel="stylesheet" href="assets/css/common.css">

</head>
<body>

<div class="container">

<header class="main-header">
	<h1 class="logo"><a href="index.html"><img src="assets/img/logo.png" width="376" height="88" alt="OpenWrt Forum Archive"></a></h1>
</header>

<aside>
	<p>This is a read-only archive of the old OpenWrt forum. The current OpenWrt forum resides at <a href="https://forum.openwrt.org/">https://forum.openwrt.org/</a>.</p>
	<p class="minor">In May 2018, the OpenWrt forum suffered a total data loss. This archive is an effort to restore and make available as much content as possible. Content may be missing or not representing the latest edited version.</p>
</aside>

<main>
	<header>
		<h1><span class="minor">Topic:</span> Need compile ffmpeg with --enable-libx264</h1>
	</header>
	<div class="notice minor">
		<p>
			The content of this topic has been archived
							on 16 Apr 2018.
										There are no obvious gaps in this topic, but there may still be some posts missing at the end.
					</p>
	</div>

	<div class="pagination"><div class="pagination-number">Page 1 of 1</div><nav><ul><li class="pagination-current"><span>1</span></li></ul></nav></div>
			
		
		
			<article class="post" id="p302399">
				<div class="post-metadata">
					<div class="post-num">Post #1</div>
					<div class="post-author">andrey2509</div>
					<div class="post-datetime">
						4 Dec 2015, 13:56					</div>
				</div>
				<div class="post-content content">
					<p>Package ffmpeg_2.6.2-1 compiled without --enable-libx264.<br />There is problem to record video (without h264 encode!) from ip-camera with h.264 codec.:<br />&quot;ffmpeg -i rtsp://192.168.2.20:554/Streaming/Channels/2 -s 320x240 -r 10 -an -vcodec copy -y /overlay/video1.avi&quot;<br />I got error on my tp-link wdr 3600 with Openwrt Chaos Calmer 15.05:<br />#####################################################<br />[h264 @ 0x899a10] RTP: missed 1 packets<br />Last message repeated 1 times<br />[h264 @ 0x899a10] illegal short term buffer state detected<br />[h264 @ 0x899a10] RTP: missed 1 packets<br />[h264 @ 0x899a10] illegal short term buffer state detected<br />[h264 @ 0x899a10] mmco: unref short failure<br />[h264 @ 0x899a10] RTP: missed 1 packets<br />Last message repeated 4 times<br />[rtsp @ 0x897180] decoding for stream 0 failed<br />Input #0, rtsp, from &#039;rtsp://192.168.2.20:554/Streaming/Channels/2&#039;:<br />Metadata:<br />title : Media Presentation<br />Duration: N/A, bitrate: N/A<br />Stream #0:0: Video: h264, yuv420p(tv, bt709), 320x240, 10 fps, 10 tbr, 90k tbn, 20 tbc<br />Output #0, avi, to &#039;/overlay/video1.avi&#039;:<br />Metadata:<br />INAM : Media Presentation<br />ISFT : Lavf56.25.101<br />Stream #0:0: Video: h264 (H264 / 0x34363248), yuv420p, 320x240, q=2-31, 10 fps, 10 tbr, 10 tbn, 10 tbc<br />Stream mapping:<br />Stream #0:0 -&gt; #0:0 (copy)<br />Press [q] to stop, [?] for help<br />[NULL @ 0x899a10] RTP: missed 1 packets<br />frame= 0 fps=0.0 q=-1.0 Lsize= 6kB time=00:00:00.00 bitrate=N/A<br />video:0kB audio:0kB subtitle:0kB other streams:0kB global headers:0kB muxing overhead: unknown<br />###################################################</p><p>I have no problem to record video with the same option on intel x86 platform (ffmpeg compiled with --enable-libx264) .<br />I know that problem is miss libx264. Please include in package or help me update Makefile for compiling with it.</p>									</div>
			</article>

			
		
			
		
		
			<article class="post" id="p302409">
				<div class="post-metadata">
					<div class="post-num">Post #2</div>
					<div class="post-author">tmo26</div>
					<div class="post-datetime">
						4 Dec 2015, 15:37					</div>
				</div>
				<div class="post-content content">
					<p>AFAIK, there&#039;s no h264 support in Openwrt.<br />See <a href="https://forum.openwrt.org/viewtopic.php?pid=245516#p245516">https://forum.openwrt.org/viewtopic.php … 16#p245516</a></p><p>Go ahead, if you find a solution, let us know.</p>									</div>
			</article>

			
		
			
		
		
			<article class="post" id="p302492">
				<div class="post-metadata">
					<div class="post-num">Post #3</div>
					<div class="post-author">andrey2509</div>
					<div class="post-datetime">
						5 Dec 2015, 11:17					</div>
				</div>
				<div class="post-content content">
					<p>I need compile libx264 not for encoding h264! Only for enable to record h.264 video stream WITHOUT encode! Ffmpeg can not correctly parse h264 video stream, libx264 is needed&nbsp; for parse headers of h.264. So option --disable-asm is no problem. CPU is not loaded while ffmpeg copy stream with option &quot;-v copy&quot;.<br />Please help me, who has good staff of cross-compiling to make Makefile for compile libx264.a and x264.so</p>									</div>
			</article>

			
		
			
		
		
			<article class="post" id="p302519">
				<div class="post-metadata">
					<div class="post-num">Post #4</div>
					<div class="post-author">mazilo</div>
					<div class="post-datetime">
						5 Dec 2015, 17:14					</div>
				</div>
				<div class="post-content content">
					<p>You can try to edit your <em>feeds/packages/multimedia/ffmpeg/Makefile</em> (preferably using <a href="https://wiki.openwrt.org/doc/devel/patches">quilt</a>) to add <strong>--enable-libx264</strong> switch under FFMPEG_CONFIGURE section and recompile it to build the package for you.</p>									</div>
			</article>

			
		
	
			<div class="notice minor">
			<p>The discussion might have continued from here.</p>
		</div>
	
	<div class="pagination"><div class="pagination-number">Page 1 of 1</div><nav><ul><li class="pagination-current"><span>1</span></li></ul></nav></div>
</main>

</div>


<!-- Created in a hurry and not indicative of usual code quality. Here's a number: 0 -->

</body>
</html>